# xmcd CD database file
#
# Track frame offsets:
#	150
#	15011
#	33224
#	53425
#	75821
#	90799
#	110239
#	127028
#	143522
#	165388
#	183371
#	202208
#	224145
#
# Disc length: 3376 seconds
#
# Revision: 10
# Processed by: cddbd v1.5.2PL0 Copyright (c) Steve Scherf et al.
# Submitted via: CDex 1.70beta2
#
DISCID=9c0d2e0d
DTITLE=大塚 愛 - LOVE LETTER
DYEAR=2008
DGENRE=Pop
TTITLE0=LOVE LETTER
TTITLE1=ロケットスニーカー
TTITLE2=バイバイ
TTITLE3=クラゲ、流れ星
TTITLE4=人形
TTITLE5=君フェチ
TTITLE6=Creamy ＆ Spicy
TTITLE7=ド☆ポジティヴ
TTITLE8=360°
TTITLE9=シャチハタ
TTITLE10=One × Time
TTITLE11=ポケット
TTITLE12=愛
EXTD=YEAR: 2008
EXTT0=
EXTT1=
EXTT2=
EXTT3=
EXTT4=
EXTT5=
EXTT6=
EXTT7=
EXTT8=
EXTT9=
EXTT10=
EXTT11=
EXTT12=
PLAYORDER=
